HIERARCHY
ROOT Hips
{
	OFFSET 0.000000 0.000000 0.000000
	CHANNELS 6 Xposition Yposition Zposition Zrotation Yrotation Xrotation 
	JOINT LHipJoint
	{
		OFFSET 0.000000 0.000000 0.000000
		CHANNELS 3 Zrotation Yrotation Xrotation
		JOINT LeftUpLeg
		{
			OFFSET 1.363060 -1.794630 0.839290
			CHANNELS 3 Zrotation Yrotation Xrotation
			JOINT LeftLeg
			{
				OFFSET 2.448110 -6.726130 0.000000
				CHANNELS 3 Zrotation Yrotation Xrotation
				JOINT LeftFoot
				{
					OFFSET 2.562200 -7.039590 0.000000
					CHANNELS 3 Zrotation Yrotation Xrotation
					JOINT LeftToeBase
					{
						OFFSET 0.157640 -0.433110 2.322550
						CHANNELS 3 Zrotation Yrotation Xrotation
						End Site
						{
							OFFSET 0.000000 0.000000 0.000000
						}
					}
				}
			}
		}
	}
	JOINT RHipJoint
	{
		OFFSET 0.000000 0.000000 0.000000
		CHANNELS 3 Zrotation Yrotation Xrotation
		JOINT RightUpLeg
		{
			OFFSET -1.305520 -1.794630 0.839290
			CHANNELS 3 Zrotation Yrotation Xrotation
			JOINT RightLeg
			{
				OFFSET -2.542530 -6.985550 0.000000
				CHANNELS 3 Zrotation Yrotation Xrotation
				JOINT RightFoot
				{
					OFFSET -2.568260 -7.056230 0.000000
					CHANNELS 3 Zrotation Yrotation Xrotation
					JOINT RightToeBase
					{
						OFFSET -0.164730 -0.452590 2.363150
						CHANNELS 3 Zrotation Yrotation Xrotation
						End Site
						{
							OFFSET 0.000000 0.000000 0.000000
						}
					}
				}
			}
		}
	}
}
MOTION
Frames: 34
Frame Time: 0.008333
-0.734271 17.213701 0.635621 20.646484 79.265480 31.823767 -9.421477 0.057726 1.703539 -11.290270 -1.588419 -37.949295 -0.782358 1.416601 41.120697 3.021718 16.420057 -9.272643 -0.106900 -0.000001 -9.686700 9.456762 -1.919489 1.965349 10.044923 3.317088 -9.345654 2.500340 0.020959 15.669190 -1.415288 -2.008724 -17.763038 0.728600 -0.000001 -8.990200
-0.573799 17.278133 0.669427 21.952658 79.139865 33.235041 -9.143552 0.107868 1.928945 -11.788074 -1.848539 -37.194716 -1.018966 1.048756 36.253265 2.972559 16.200661 -8.018587 0.323500 0.000000 -9.644900 9.720279 -2.041242 1.977481 9.415357 2.599761 -7.830804 2.465786 0.208781 12.892490 -1.177971 -1.441121 -15.918483 0.501199 0.000001 -10.346800
-0.412734 17.334525 0.697937 22.635381 78.987082 34.017388 -8.921568 0.169375 2.157562 -12.161641 -1.991091 -36.417488 -1.282756 0.683906 31.344122 2.843218 15.644438 -6.686435 0.749400 0.000000 -9.832799 9.945240 -2.177627 1.974790 8.904397 1.859312 -6.389978 2.437849 0.371028 10.297530 -0.933712 -0.808143 -13.986380 0.302800 -0.000000 -11.964200
-0.251009 17.382670 0.720571 22.674108 78.818174 34.166900 -8.768123 0.225671 2.388910 -12.390321 -2.009003 -35.683336 -1.572354 0.321246 26.481887 2.629361 14.728062 -5.300293 1.131300 0.000000 -10.351599 10.113402 -2.328735 1.966035 8.533406 1.136723 -5.044845 2.424832 0.510268 7.905172 -0.692224 -0.129219 -12.022239 0.146000 -0.000000 -13.675400
-0.089228 17.422601 0.737798 22.217979 78.641434 33.820173 -8.678889 0.265896 2.615053 -12.498650 -1.911707 -35.007812 -1.884297 -0.039165 21.740971 2.334740 13.458097 -3.881911 1.432800 -0.000000 -11.248999 10.230867 -2.489679 1.942018 8.273573 0.396354 -3.795328 2.430929 0.625521 5.738797 -0.452291 0.623004 -10.061180 0.036900 0.000000 -15.590399
0.072476 17.454339 0.750040 21.341836 78.462813 33.057714 -8.649801 0.280895 2.829316 -12.504817 -1.694734 -34.439038 -2.210700 -0.392834 17.211254 1.969332 11.846323 -2.453806 1.623800 0.000000 -12.606600 10.297170 -2.655660 1.910525 8.117451 -0.335240 -2.645959 2.456699 0.721440 3.804275 -0.222138 1.426329 -8.161177 -0.017999 0.000000 -17.580800
0.233707 17.478033 0.758104 20.164216 78.286803 31.995723 -8.669446 0.266532 3.021994 -12.449415 -1.353435 -34.010019 -2.543020 -0.733072 12.975406 1.549741 9.920143 -1.043018 1.682500 0.000000 -14.453200 10.319402 -2.820541 1.875612 8.042807 -1.044762 -1.592561 2.499315 0.801803 2.103632 -0.007374 2.261220 -6.372857 -0.018500 -0.000000 -19.587699
0.394019 17.493770 0.762859 18.817653 78.119445 30.760845 -8.722565 0.223055 3.183407 -12.385759 -0.886744 -33.744608 -2.872794 -1.052206 9.108278 1.097702 7.722557 0.317049 1.598100 0.000000 -16.772400 10.307828 -2.978444 1.838151 8.021657 -1.728228 -0.626183 2.553850 0.869103 0.635212 0.188466 3.107331 -4.730086 0.030400 0.000000 -21.675000
0.553112 17.501853 0.765203 17.410868 77.968694 29.465889 -8.792796 0.153879 3.309532 -12.364477 -0.305691 -33.670835 -3.192052 -1.344347 5.669170 0.638448 5.319528 1.588777 1.374600 0.000000 -19.487800 10.271054 -3.124501 1.805716 8.033631 -2.352265 0.254463 2.613941 0.926771 -0.605569 0.359530 3.921465 -3.279250 0.117100 0.000000 -23.728101
0.710556 17.502514 0.765938 16.066082 77.847949 28.231660 -8.863181 0.065317 3.400205 -12.430431 0.353437 -33.795705 -3.493412 -1.605546 2.700022 0.198079 2.806403 2.725009 1.032101 0.000000 -22.456501 10.220319 -3.254191 1.775229 8.052844 -2.918261 1.053249 2.673999 0.975237 -1.621005 0.505312 4.681946 -2.038926 0.227501 0.000000 -25.838400
0.866103 17.496280 0.765688 14.862521 77.772693 27.146604 -8.920190 -0.035503 3.465509 -12.594442 1.017143 -34.112299 -3.767794 -1.836030 0.204477 -0.197785 0.329685 3.689927 0.613701 0.000000 -25.502600 10.163308 -3.364146 1.747447 8.066474 -3.403389 1.767062 2.728933 1.015453 -2.415034 0.623743 5.352670 -1.036369 0.344400 0.000000 -27.894800
1.019410 17.483539 0.764862 13.859935 77.762357 26.273123 -8.955649 -0.140397 3.515567 -12.847885 1.607970 -34.597872 -4.007406 -2.035383 -1.820030 -0.531263 -1.956002 4.447690 0.173100 0.000000 -28.440300 10.106694 -3.452498 1.714280 8.065195 -3.817679 2.397494 2.776107 1.046018 -2.991870 0.717071 5.922953 -0.265134 0.454600 0.000000 -29.995900
1.170380 17.464973 0.763698 13.064589 77.832208 25.623943 -8.968003 -0.241986 3.562670 -13.153833 2.050998 -35.219842 -4.205357 -2.203973 -3.399495 -0.792037 -3.889447 4.986703 -0.230200 0.000001 -31.123000 10.052360 -3.518920 1.672343 8.055246 -4.151221 2.946693 2.814413 1.066681 -3.357790 0.786131 6.376033 0.270371 0.545700 -0.000001 -32.006501
1.318931 17.441225 0.762294 12.474278 77.995951 25.191031 -8.960227 -0.332935 3.610105 -13.484799 2.315397 -35.945937 -4.360120 -2.338565 -4.541311 -0.980131 -5.368905 5.302534 -0.551000 -0.000001 -33.448300 10.002006 -3.565476 1.613379 8.041307 -4.425612 3.424779 2.844557 1.075136 -3.521355 0.835161 6.722878 0.603845 0.613800 0.000000 -34.015700
1.465211 17.413158 0.760662 12.055885 78.258772 24.935242 -8.938371 -0.407752 3.657217 -13.818026 2.404526 -36.752054 -4.473595 -2.435301 -5.252403 -1.100640 -6.346456 5.408122 -0.762600 0.000000 -35.364201 9.954285 -3.595554 1.535198 8.035535 -4.648170 3.843366 2.868179 1.070465 -3.491756 0.867213 6.973430 0.755961 0.657400 -0.000000 -35.900600
1.609520 17.381714 0.758822 11.779343 78.620174 24.814414 -8.908761 -0.462650 3.698901 -14.145054 2.348242 -37.617453 -4.549990 -2.489801 -5.535843 -1.160766 -6.831732 5.324641 -0.858700 0.000000 -36.841700 9.908428 -3.613872 1.435038 8.045286 -4.840141 4.217562 2.887221 1.050835 -3.281669 0.886618 7.150795 0.771004 0.680900 0.000000 -37.682100
1.752344 17.347848 0.756749 11.605417 79.072388 24.778684 -8.877301 -0.496518 3.731187 -14.458752 2.180719 -38.523333 -4.592754 -2.499758 -5.408968 -1.166650 -6.865224 5.081287 -0.848200 -0.000000 -37.860001 9.862656 -3.625034 1.313124 8.078175 -5.016132 4.561230 2.903592 1.015307 -2.906198 0.896988 7.275734 0.689706 0.689600 0.000000 -39.319499
1.894367 17.312628 0.754494 11.491981 79.601111 24.778747 -8.848895 -0.510842 3.753312 -14.746071 1.927217 -39.445211 -4.602953 -2.466145 -4.912727 -1.122483 -6.498959 4.714887 -0.747900 0.000001 -38.396100 9.815237 -3.633394 1.171281 8.139445 -5.186425 4.886500 2.918591 0.963285 -2.383954 0.901396 7.364977 0.557355 0.689500 0.000000 -40.814600
2.036369 17.276985 0.752195 11.413167 80.188756 24.781687 -8.826547 -0.509392 3.767405 -14.989329 1.599802 -40.348960 -4.579620 -2.393634 -4.111112 -1.031008 -5.788527 4.263609 -0.577700 -0.000000 -38.432900 9.765912 -3.642312 1.010088 8.227137 -5.366602 5.204233 2.932667 0.894208 -1.734113 0.902738 7.435244 0.418532 0.686899 0.000000 -42.206700
2.179396 17.241976 0.750021 11.332403 80.812251 24.754488 -8.811839 -0.497158 3.779923 -15.168503 1.204150 -41.210477 -4.522222 -2.290565 -3.082019 -0.895456 -4.796088 3.761761 -0.358200 0.000000 -37.973300 9.713479 -3.654757 0.836586 8.341487 -5.550165 5.515289 2.945106 0.809054 -0.977841 0.901683 7.484108 0.306813 0.684600 0.000000 -43.491300
2.324440 17.208423 0.748359 11.255945 81.451681 24.704386 -8.803492 -0.478691 3.795659 -15.278893 0.749168 -42.005503 -4.433651 -2.166753 -1.900945 -0.722054 -3.603081 3.231740 -0.111000 0.000000 -37.055100 9.660039 -3.673375 0.655384 8.471859 -5.746045 5.818220 2.954303 0.708254 -0.132242 0.899279 7.515480 0.253354 0.686100 0.000000 -44.731100
2.472280 17.177159 0.747608 11.225009 82.088357 24.671234 -8.798266 -0.458387 3.816494 -15.326212 0.247466 -42.707941 -4.319876 -2.032867 -0.641423 -0.519721 -2.296873 2.684306 0.143500 0.000000 -35.757301 9.609572 -3.699913 0.470341 8.601317 -5.961198 6.114288 2.957318 0.592210 0.785634 0.895538 7.526801 0.282118 0.693700 0.000000 -45.983499
2.624054 17.148821 0.748268 11.281916 82.706252 24.705542 -8.792359 -0.437555 3.844780 -15.333448 -0.274183 -43.320108 -4.192920 -1.898105 0.647670 -0.302655 -0.985947 2.111104 0.382600 0.000000 -34.190400 9.565553 -3.737430 0.292003 8.717971 -6.192152 6.388015 2.951427 0.462424 1.763900 0.889455 7.508642 0.408027 0.707600 0.000001 -47.313700
2.780881 17.123867 0.750632 11.437668 83.286508 24.833699 -8.783024 -0.416879 3.882551 -15.320104 -0.785907 -43.853942 -4.065783 -1.770836 1.921895 -0.085872 0.233363 1.495490 0.586600 -0.000000 -32.484101 9.528459 -3.788233 0.137441 8.823054 -6.397436 6.624724 2.932896 0.321931 2.783808 0.876779 7.422251 0.637771 0.723500 -0.000000 -48.764100
2.942410 17.102564 0.755174 11.905125 83.834716 25.242615 -8.764045 -0.398144 3.920847 -15.312013 -1.277658 -44.255294 -3.948094 -1.657147 3.141097 0.118358 1.294797 0.813354 0.740300 0.000000 -30.743101 9.511782 -3.852768 -0.010699 8.870408 -6.659396 6.838002 2.899841 0.167230 3.848350 0.862210 7.319694 0.998408 0.750400 0.000000 -50.471700
3.109826 17.084975 0.761946 12.643235 84.330654 25.918092 -8.734892 -0.380330 3.963699 -15.318375 -1.720533 -44.553401 -3.851246 -1.562850 4.276228 0.298087 2.138524 0.042300 0.831700 0.000001 -29.078200 9.512711 -3.932844 -0.128274 8.878070 -6.900859 7.001977 2.849419 0.002942 4.942967 0.839569 7.148349 1.482548 0.779699 -0.000000 -52.448600
3.283050 17.070997 0.770804 13.666597 84.768672 26.871559 -8.695112 -0.364641 4.007536 -15.334962 -2.104882 -44.729317 -3.779004 -1.491039 5.301659 0.447596 2.743382 -0.833952 0.857199 -0.000000 -27.560100 9.533057 -4.027252 -0.216247 8.842862 -7.118372 7.121521 2.780428 -0.170139 6.059491 0.808377 6.910615 2.105503 0.811200 -0.000000 -54.756000
3.461759 17.060230 0.781558 14.996182 85.143621 28.116499 -8.643674 -0.351916 4.049454 -15.354620 -2.431233 -44.755868 -3.731752 -1.444286 6.191340 0.565889 3.118696 -1.813149 0.822100 0.000000 -26.246001 9.577907 -4.134091 -0.281204 8.749197 -7.331961 7.196157 2.692784 -0.352574 7.206195 0.770983 6.640708 2.877870 0.849100 -0.000000 -57.455600
3.645683 17.052201 0.793572 16.438750 85.442362 29.461641 -8.586103 -0.342954 4.088180 -15.351188 -2.695705 -44.628305 -3.704748 -1.421776 6.933108 0.655492 3.290369 -2.877708 0.738000 -0.000000 -25.177600 9.640432 -4.248853 -0.322153 8.612228 -7.511149 7.232137 2.586908 -0.541776 8.377952 0.726791 6.340735 3.806851 0.892200 0.000000 -60.522300
3.834072 17.046144 0.806345 17.895798 85.657953 30.798110 -8.525926 -0.338172 4.121880 -15.306985 -2.910235 -44.324272 -3.690799 -1.422013 7.514977 0.722630 3.312131 -3.986452 0.622800 0.000000 -24.383700 9.721536 -4.366962 -0.350682 8.415263 -7.684622 7.229763 2.464206 -0.738409 9.595812 0.680352 6.069905 4.898631 0.951200 -0.000000 -63.957200
4.026256 17.041237 0.819028 19.099632 85.779819 31.856981 -8.473938 -0.337675 4.150039 -15.196604 -3.080065 -43.850024 -3.679751 -1.439138 7.946400 0.774210 3.241651 -5.085910 0.494700 -0.000000 -23.876799 9.809954 -4.482466 -0.370627 8.169812 -7.836963 7.193961 2.326666 -0.940283 10.869975 0.633111 5.855100 6.149224 1.032400 0.000000 -67.635500
4.221430 17.036474 0.830983 19.917193 85.805064 32.499324 -8.438247 -0.340673 4.172119 -15.009224 -3.219597 -43.212388 -3.661901 -1.465806 8.247987 0.817433 3.145533 -6.110996 0.370400 -0.000000 -23.645701 9.900893 -4.590878 -0.391134 7.867791 -7.987546 7.120754 2.176469 -1.147077 12.227903 0.588381 5.750319 7.550011 1.151900 0.000000 -71.432300
4.418826 17.030828 0.841586 20.255508 85.735296 32.631357 -8.426375 -0.344978 4.187880 -14.743572 -3.340314 -42.439017 -3.628890 -1.492018 8.461789 0.857906 3.083283 -6.996881 0.261900 -0.000000 -23.653999 9.989029 -4.688764 -0.417394 7.509026 -8.145421 7.002654 2.015514 -1.357573 13.696788 0.547228 5.792987 9.085080 1.326500 0.000000 -75.161800
4.617681 17.023141 0.850578 20.216461 85.581885 32.352637 -8.437810 -0.346504 4.196507 -14.419202 -3.457749 -41.562933 -3.576352 -1.507669 8.643364 0.899441 3.105051 -7.684541 0.177200 0.000000 -23.840300 10.080128 -4.774512 -0.456667 7.075084 -8.348510 6.820493 1.844568 -1.571262 15.314210 0.509865 6.027223 10.738112 1.580100 -0.000000 -78.687700
